<svg width="373" height="374" viewBox="0 0 373 374" fill="none" xmlns="http://www.w3.org/2000/svg">
<path d="M186.5 373.334C289.501 373.334 373 289.835 373 186.834C373 83.8329 289.501 0.333984 186.5 0.333984C83.4989 0.333984 0 83.8329 0 186.834C0 289.835 83.4989 373.334 186.5 373.334Z" fill="url(#paint0_linear_225_614)"/>
<path d="M152.308 272.312C146.266 272.312 147.293 270.031 145.209 264.278L127.441 205.803L264.208 124.666" fill="#C8DAEA"/>
<path d="M152.309 272.313C156.971 272.313 159.031 270.18 161.634 267.65L186.5 243.471L155.482 224.766" fill="#A9C9DD"/>
<path d="M155.479 224.77L230.639 280.299C239.215 285.031 245.406 282.581 247.542 272.336L278.136 128.167C281.268 115.609 273.349 109.913 265.144 113.638L85.4976 182.909C73.2351 187.828 73.3066 194.669 83.2624 197.717L129.364 212.106L236.093 144.772C241.131 141.717 245.756 143.359 241.96 146.728" fill="url(#paint1_linear_225_614)"/>
<defs>
<linearGradient id="paint0_linear_225_614" x1="139.894" y1="15.8881" x2="46.6436" y2="233.459" gradientUnits="userSpaceOnUse">
<stop stop-color="#37AEE2"/>
<stop offset="1" stop-color="#1E96C8"/>
</linearGradient>
<linearGradient id="paint1_linear_225_614" x1="163.154" y1="198.289" x2="183.081" y2="262.748" gradientUnits="userSpaceOnUse">
<stop stop-color="#EFF7FC"/>
<stop offset="1" stop-color="white"/>
</linearGradient>
</defs>
</svg>
