<svg width="54" height="61" viewBox="0 0 54 61" fill="none" xmlns="http://www.w3.org/2000/svg">
<path d="M21.79 40.645V59.395C21.79 59.395 22.3585 60.3325 22.7374 60.3325C23.1164 60.3325 23.6848 59.395 23.6848 59.395V40.645H21.79ZM26.5269 40.645H25.5795V59.395C25.5795 59.395 26.1479 60.3325 26.5269 60.3325C26.9058 60.3325 27.4743 59.395 27.4743 59.395V40.645H26.5269ZM29.369 40.645V59.395C29.369 59.395 29.9374 60.3325 30.3164 60.3325C30.6953 60.3325 31.2638 59.395 31.2638 59.395V40.645H29.369Z" fill="#242B35"/>
<path d="M18.474 48.145H34.5793V50.02H18.474V48.145ZM18.474 44.395H34.5793V46.27H18.474V44.395ZM18.474 51.895H34.5793V53.77H18.474V51.895ZM18.474 55.645H34.5793V57.52H18.474V55.645ZM8.52658 10.645C8.52658 11.2075 8.14763 11.5825 7.57921 11.5825C7.01078 11.5825 6.63184 11.2075 6.63184 10.645V1.27002C6.63184 0.707519 7.01078 0.33252 7.57921 0.33252C8.14763 0.33252 8.52658 0.707519 8.52658 1.27002V10.645ZM27.474 10.645C27.474 11.2075 27.0003 11.5825 26.5266 11.5825C26.0529 11.5825 25.5793 11.2075 25.5793 10.645V1.27002C25.5793 0.707519 26.0529 0.33252 26.5266 0.33252C27.0003 0.33252 27.474 0.707519 27.474 1.27002V10.645ZM46.4214 10.645C46.4214 11.2075 45.9477 11.5825 45.474 11.5825C45.0004 11.5825 44.5267 11.2075 44.5267 10.645V1.27002C44.5267 0.707519 45.0004 0.33252 45.474 0.33252C45.9477 0.33252 46.4214 0.707519 46.4214 1.27002V10.645Z" fill="#242B35"/>
<path d="M17.5261 20.9575H34.5788V35.9575H17.5261V20.9575ZM2.36816 17.2075H11.8419V35.9575H2.36816V17.2075ZM40.263 17.2075H49.7367V35.9575H40.263V17.2075Z" fill="#DEE7EE"/>
<path d="M26.5264 9.70752L15.1579 20.9575H37.8948L26.5264 9.70752ZM7.57897 9.70752L0 17.2075H15.1579L7.57897 9.70752ZM45.4738 9.70752L37.8948 17.2075H53.0528L45.4738 9.70752Z" fill="#11A1C4"/>
<path d="M26.5257 30.3325C28.0954 30.3325 29.3678 29.0733 29.3678 27.52C29.3678 25.9667 28.0954 24.7075 26.5257 24.7075C24.9561 24.7075 23.6836 25.9667 23.6836 27.52C23.6836 29.0733 24.9561 30.3325 26.5257 30.3325Z" fill="#242B35"/>
<path d="M23.6836 27.52H29.3678V35.9575H23.6836V27.52Z" fill="#242B35"/>
<path d="M51.1589 30.3325H47.3694C46.8957 30.3325 46.4221 30.8013 46.4221 31.27V35.02C46.4221 35.4888 45.9484 35.9575 45.4747 35.9575H41.6852C41.2115 35.9575 40.7378 35.4888 40.7378 35.02V31.27C40.7378 30.8013 40.2641 30.3325 39.7905 30.3325H36.001C35.5273 30.3325 35.0536 30.8013 35.0536 31.27V35.02C35.0536 35.4888 34.5799 35.9575 34.1062 35.9575H30.3167C29.8431 35.9575 29.3694 35.4888 29.3694 35.02V31.27C29.3694 30.8013 28.8957 30.3325 28.422 30.3325H24.6325C24.1588 30.3325 23.6852 30.8013 23.6852 31.27V35.02C23.6852 35.4888 23.2115 35.9575 22.7378 35.9575H18.9483C18.4746 35.9575 18.0009 35.4888 18.0009 35.02V31.27C18.0009 30.8013 17.5272 30.3325 17.0536 30.3325H13.2641C12.7904 30.3325 12.3167 30.8013 12.3167 31.27V35.02C12.3167 35.4888 11.843 35.9575 11.3693 35.9575H7.57984C7.01142 35.9575 6.63247 35.4888 6.63247 35.02V31.27C6.63247 30.8013 6.25352 30.3325 5.6851 30.3325H1.89561C1.32719 30.3325 0.948242 30.8013 0.948242 31.27V35.02C0.948242 35.4888 1.23245 36.2388 1.6114 36.6138L2.17982 37.1763C2.55877 37.5513 2.84298 38.3013 2.84298 38.77V59.395C2.84298 59.8638 3.22193 60.3325 3.79036 60.3325H18.9483V49.0825C18.9483 44.9575 22.3588 41.5825 26.5273 41.5825C30.6957 41.5825 34.1062 44.9575 34.1062 49.0825V60.3325H49.2642C49.7379 60.3325 50.2115 59.8638 50.2115 59.395V38.77C50.2115 38.3013 50.4958 37.5513 50.8747 37.1763L51.4431 36.6138C51.8221 36.2388 52.1063 35.4888 52.1063 35.02V31.27C52.1063 30.8013 51.6326 30.3325 51.1589 30.3325Z" fill="#9FA8AF"/>
<path d="M5.68555 20.9575H9.47503V26.5825H5.68555V20.9575Z" fill="#242B35"/>
<path d="M7.58029 22.8325C8.62673 22.8325 9.47503 21.9931 9.47503 20.9575C9.47503 19.922 8.62673 19.0825 7.58029 19.0825C6.53385 19.0825 5.68555 19.922 5.68555 20.9575C5.68555 21.9931 6.53385 22.8325 7.58029 22.8325Z" fill="#242B35"/>
<path d="M43.5801 20.9575H47.3696V26.5825H43.5801V20.9575Z" fill="#242B35"/>
<path d="M45.4748 22.8325C46.5213 22.8325 47.3696 21.9931 47.3696 20.9575C47.3696 19.922 46.5213 19.0825 45.4748 19.0825C44.4284 19.0825 43.5801 19.922 43.5801 20.9575C43.5801 21.9931 44.4284 22.8325 45.4748 22.8325Z" fill="#242B35"/>
<path d="M6.15775 41.5825H2.36827C1.79985 41.5825 1.4209 42.0513 1.4209 42.52V44.395C1.4209 44.8638 1.79985 45.3325 2.36827 45.3325H6.15775C6.72618 45.3325 7.10512 44.8638 7.10512 44.395V42.52C7.10512 42.0513 6.72618 41.5825 6.15775 41.5825Z" fill="#B2C1C0"/>
<path d="M16.1053 6.51972C13.5474 5.11347 11.0843 7.92597 8.52637 6.51972V1.73847C11.0843 3.14472 13.5474 0.332219 16.1053 1.73847C15.4422 2.20722 14.8738 2.86347 14.2106 3.70722C14.8738 4.45722 15.4422 5.30097 16.1053 6.51972ZM35.0528 6.51972C32.4949 5.11347 30.0317 7.92597 27.4738 6.51972V1.73847C30.0317 3.14472 32.4949 0.332219 35.0528 1.73847C34.3896 2.20722 33.8212 2.86347 33.158 3.70722C33.8212 4.45722 34.3896 5.30097 35.0528 6.51972ZM54.0002 6.51972C51.4423 5.11347 48.9791 7.92597 46.4212 6.51972V1.73847C48.9791 3.14472 51.4423 0.332219 54.0002 1.73847C53.337 2.20722 52.7686 2.86347 52.1054 3.70722C52.7686 4.45722 53.337 5.30097 54.0002 6.51972Z" fill="#3EC0DD"/>
<path d="M8.99987 47.2075H5.21038C4.64196 47.2075 4.26301 47.6763 4.26301 48.145V50.02C4.26301 50.4888 4.64196 50.9575 5.21038 50.9575H8.99987C9.56829 50.9575 9.94724 50.4888 9.94724 50.02V48.145C9.94724 47.6763 9.56829 47.2075 8.99987 47.2075ZM17.3367 56.5825H13.5472C13.0736 56.5825 12.5999 57.0513 12.5999 57.52V59.395C12.5999 59.8638 13.0736 60.3325 13.5472 60.3325H17.3367C17.8104 60.3325 18.2841 59.8638 18.2841 59.395V57.52C18.2841 57.0513 17.8104 56.5825 17.3367 56.5825ZM15.3473 51.895H11.5578C10.9893 51.895 10.6104 52.3638 10.6104 52.8325V54.7075C10.6104 55.1763 10.9893 55.645 11.5578 55.645H15.3473C15.8209 55.645 16.2946 55.1763 16.2946 54.7075V52.8325C16.2946 52.3638 15.8209 51.895 15.3473 51.895ZM17.3367 44.395H13.5472C13.0736 44.395 12.5999 44.8638 12.5999 45.3325V47.2075C12.5999 47.6763 13.0736 48.145 13.5472 48.145H17.3367C17.8104 48.145 18.2841 47.6763 18.2841 47.2075V45.3325C18.2841 44.8638 17.8104 44.395 17.3367 44.395ZM14.6841 37.7388H10.8946C10.3262 37.7388 9.94724 38.2075 9.94724 38.6763V40.5513C9.94724 41.02 10.3262 41.4888 10.8946 41.4888H14.6841C15.1578 41.4888 15.6315 41.02 15.6315 40.5513V38.6763C15.6315 38.2075 15.1578 37.7388 14.6841 37.7388ZM6.15775 52.8325H2.36827C1.79985 52.8325 1.4209 53.3013 1.4209 53.77V55.645C1.4209 56.1138 1.79985 56.5825 2.36827 56.5825H6.15775C6.72618 56.5825 7.10513 56.1138 7.10513 55.645V53.77C7.10513 53.3013 6.72618 52.8325 6.15775 52.8325ZM50.6842 47.2075H46.8947C46.421 47.2075 45.9473 47.6763 45.9473 48.145V50.02C45.9473 50.4888 46.421 50.9575 46.8947 50.9575H50.6842C51.1579 50.9575 51.6316 50.4888 51.6316 50.02V48.145C51.6316 47.6763 51.1579 47.2075 50.6842 47.2075ZM47.8421 52.8325H44.0526C43.5789 52.8325 43.1052 53.3013 43.1052 53.77V55.645C43.1052 56.1138 43.5789 56.5825 44.0526 56.5825H47.8421C48.3158 56.5825 48.7895 56.1138 48.7895 55.645V53.77C48.7895 53.3013 48.3158 52.8325 47.8421 52.8325ZM43.5789 42.2388H39.7894C39.3157 42.2388 38.8421 42.7075 38.8421 43.1763V45.0513C38.8421 45.52 39.3157 45.9888 39.7894 45.9888H43.5789C44.0526 45.9888 44.5263 45.52 44.5263 45.0513V43.1763C44.5263 42.6138 44.0526 42.2388 43.5789 42.2388ZM39.7894 48.6138H35.9999C35.5263 48.6138 35.0526 49.0825 35.0526 49.5513V51.4263C35.0526 51.895 35.5263 52.3638 35.9999 52.3638H39.7894C40.2631 52.3638 40.7368 51.895 40.7368 51.4263V49.5513C40.7368 49.0825 40.2631 48.6138 39.7894 48.6138ZM41.5894 56.5825H37.8C37.3263 56.5825 36.8526 57.0513 36.8526 57.52V59.395C36.8526 59.8638 37.3263 60.3325 37.8 60.3325H41.5894C42.0631 60.3325 42.5368 59.8638 42.5368 59.395V57.52C42.5368 57.0513 42.0631 56.5825 41.5894 56.5825ZM50.2105 37.0825H46.421C45.9473 37.0825 45.4737 37.5513 45.4737 38.02V39.895C45.4737 40.3638 45.9473 40.8325 46.421 40.8325H50.2105C50.6842 40.8325 51.1579 40.3638 51.1579 39.895V38.02C51.1579 37.4575 50.6842 37.0825 50.2105 37.0825ZM35.5263 38.02H31.7368C31.2631 38.02 30.7894 38.4888 30.7894 38.9575V40.8325C30.7894 41.3013 31.2631 41.77 31.7368 41.77H35.5263C35.9999 41.77 36.4736 41.3013 36.4736 40.8325V38.9575C36.4736 38.395 35.9999 38.02 35.5263 38.02Z" fill="#DEE7EE"/>
<path d="M9.47416 26.4888H5.68468C5.11625 26.4888 4.7373 26.9575 4.7373 27.4263V27.6138C4.7373 28.0825 5.11625 28.5513 5.68468 28.5513H9.47416C10.0426 28.5513 10.4215 28.0825 10.4215 27.6138V27.4263C10.4215 26.8638 10.0426 26.4888 9.47416 26.4888ZM47.369 26.4888H43.5795C43.1058 26.4888 42.6321 26.9575 42.6321 27.4263V27.6138C42.6321 28.0825 43.1058 28.5513 43.5795 28.5513H47.369C47.8427 28.5513 48.3164 28.0825 48.3164 27.6138V27.4263C48.3164 26.8638 47.8427 26.4888 47.369 26.4888Z" fill="#9FA8AF"/>
</svg>
