<svg width="261" height="280" viewBox="0 0 261 280" fill="none" xmlns="http://www.w3.org/2000/svg">
<path d="M49.9792 93.3336C49.9792 88.6483 45.9685 84.8496 41.0188 84.8496C36.074 84.8496 32.0488 88.6483 32.0488 93.3336V118.786H49.984L49.9792 93.3336ZM229.293 93.3336C229.293 88.6483 225.277 84.8496 220.323 84.8496C215.383 84.8496 211.362 88.6483 211.362 93.3336V118.786H229.297L229.293 93.3336Z" fill="#3EC0DD"/>
<path d="M260.668 27.8134C258.132 23.3049 255.13 19.0582 251.708 15.1388C254.693 11.3168 257.683 8.11079 260.668 6.12279C248.722 -0.391871 236.762 12.6281 224.812 6.12279V4.24213C224.812 1.90879 222.795 0.000128237 220.32 0.000128237C219.146 -0.00863673 218.017 0.432224 217.178 1.22672C216.338 2.02122 215.856 3.10501 215.837 4.24213V46.6668L184.459 76.3654H193.419V127.269H175.489V93.3334H184.454L135.151 46.6668V27.8134C147.111 34.3281 159.066 21.3081 171.016 27.8134C168.479 23.3035 165.474 19.0566 162.046 15.1388C165.041 11.3168 168.026 8.11079 171.016 6.12279C159.066 -0.391871 147.111 12.6281 135.151 6.12279V4.24213C135.151 1.90879 133.138 0.000128237 130.668 0.000128237C129.495 -0.00863673 128.365 0.432224 127.526 1.22672C126.686 2.02122 126.204 3.10501 126.185 4.24213V46.6668L76.872 93.3334H85.8372V127.269H67.9069V76.3654H76.8672L45.4987 46.6668V27.8134C57.4491 34.3281 69.4043 21.3081 81.3595 27.8134C78.8224 23.3047 75.8186 19.058 72.3943 15.1388C75.3794 11.3168 78.3743 8.11079 81.3595 6.12279C69.4043 -0.391871 57.4491 12.6281 45.4987 6.12279V4.24213C45.4987 1.90879 43.4813 0.000128237 41.0161 0.000128237C38.5509 0.000128237 36.5287 1.90879 36.5287 4.24213V46.6668L5.14575 76.3654H14.1061V127.269C6.70093 127.269 0.667969 132.981 0.667969 140V156.968C0.667969 161.537 3.04649 166.983 6.46019 170.212L9.08908 172.699C9.2239 172.891 9.58501 173.712 9.63797 174.099L9.62834 267.269C9.62834 274.288 15.6613 280 23.0809 280H103.768V263.037H108.245V271.516C108.245 271.516 111.149 275.758 112.733 275.758C114.317 275.758 117.215 271.516 117.215 271.516V263.037H126.185V271.516C126.185 271.516 129.084 275.758 130.668 275.758C132.252 275.758 135.151 271.516 135.151 271.516V263.037H144.121V271.516C144.121 271.516 147.019 275.758 148.603 275.758C150.187 275.758 153.091 271.516 153.091 271.516V263.037H157.568V280H238.255C245.675 280 251.708 274.288 251.708 267.269V173.936C251.751 173.707 252.112 172.886 252.367 172.578L254.876 170.207C258.289 166.983 260.668 161.537 260.668 156.968V140C260.668 132.981 254.635 127.269 247.22 127.269V76.3654H256.185L224.812 46.6668V27.8134C236.762 34.3281 248.722 21.3128 260.668 27.8134ZM94.812 93.3334H166.534V130.578C165.135 131.747 164.011 133.193 163.237 134.818C162.463 136.443 162.057 138.21 162.046 140V152.731H153.091V140C153.091 134.475 149.33 129.813 144.125 128.053V118.785C144.125 111.757 138.107 106.059 130.673 106.059C123.248 106.059 117.22 111.757 117.22 118.785V128.053C112.015 129.813 108.255 134.475 108.255 140V152.731H99.2995V140C99.2995 136.248 97.5469 132.911 94.8169 130.578V93.3334H94.812ZM23.0809 76.3654H58.9369V130.578C56.2117 132.911 54.4591 136.248 54.4591 140V152.731H45.4939V140C45.4939 132.981 39.4609 127.269 32.0413 127.269H23.0809V76.3654ZM108.25 254.548H103.772V246.064H108.25V254.548ZM108.25 237.575H103.772V229.091H108.25V237.575ZM108.25 220.603H103.772C103.772 217.621 104.345 214.779 105.337 212.119H108.245L108.25 220.603ZM126.185 254.548H117.215V246.064H126.185V254.548ZM126.185 237.575H117.215V229.091H126.185V237.575ZM126.185 220.603H117.215V212.119H126.185V220.603ZM117.215 203.635V198.595C119.997 197.073 123.033 196.038 126.185 195.538V203.635H117.215ZM144.121 254.548H135.151V246.064H144.121V254.548ZM144.121 237.575H135.151V229.091H144.121V237.575ZM144.121 220.603H135.151V212.119H144.121V220.603ZM135.151 203.635V195.533C138.303 196.033 141.339 197.068 144.121 198.59V203.63H135.151V203.635ZM153.086 229.091H157.564V237.575H153.086V229.091ZM153.086 220.603V212.119H155.994C156.986 214.779 157.559 217.625 157.559 220.603H153.086ZM153.086 254.548V246.064H157.564V254.548H153.086ZM251.708 140V156.968C251.708 159.301 250.278 162.563 248.535 164.215L245.911 166.698C245.771 166.838 245.641 167.039 245.496 167.202C244.719 166.583 243.749 166.236 242.742 166.217H224.812C222.347 166.217 220.32 168.126 220.32 170.455V178.939C220.32 181.272 222.347 183.185 224.812 183.185H242.742V212.114H227.051C225.877 212.105 224.747 212.547 223.907 213.342C223.067 214.138 222.586 215.223 222.568 216.361V224.84C222.568 227.173 224.591 229.082 227.051 229.082H242.742V267.265C242.742 269.598 240.73 271.507 238.255 271.507H201.831C203.005 271.518 204.137 271.078 204.978 270.283C205.819 269.488 206.301 268.403 206.318 267.265V258.781C206.318 256.447 204.301 254.543 201.831 254.543H183.901C181.44 254.543 179.413 256.447 179.413 258.781V267.265C179.413 269.598 181.44 271.507 183.901 271.507H166.529V220.603C166.529 201.866 150.476 186.667 130.668 186.667C110.865 186.667 94.812 201.866 94.812 220.603V271.511H87.1565C88.3307 271.521 89.4613 271.081 90.3019 270.286C91.1425 269.492 91.6249 268.407 91.6439 267.269V258.785C91.6439 256.452 89.6169 254.548 87.1565 254.548H69.2213C68.0477 254.536 66.9168 254.975 66.0766 255.769C65.2363 256.563 64.7552 257.648 64.7387 258.785V267.269C64.7387 269.603 66.7513 271.511 69.2213 271.511H23.0809C21.9068 271.521 20.7761 271.081 19.9355 270.286C19.0949 269.492 18.6125 268.407 18.5935 267.269V254.543H34.285C36.755 254.543 38.7676 252.63 38.7676 250.297V241.817C38.7676 239.484 36.755 237.575 34.285 237.575H18.5983V203.635H34.2898C35.4635 203.647 36.5943 203.208 37.4346 202.414C38.2748 201.62 38.7559 200.535 38.7724 199.397V190.913C38.7724 188.58 36.7598 186.671 34.2898 186.671H18.5983V173.941C18.5983 171.607 17.1732 168.35 15.4302 166.698L12.8061 164.215C11.0632 162.563 9.63315 159.301 9.63315 156.968V140C9.63315 137.667 11.6602 135.758 14.1157 135.758H32.0509C34.5257 135.758 36.5383 137.667 36.5383 140V156.968C36.5383 159.301 38.5606 161.215 41.0257 161.215H58.9513C61.4261 161.215 63.4339 159.301 63.4339 156.968V140C63.4339 137.667 65.4609 135.758 67.9261 135.758H85.8565C88.3265 135.758 90.3391 137.667 90.3391 140V156.968C90.3391 159.301 92.3661 161.215 94.8313 161.215H112.757C115.227 161.215 117.239 159.301 117.239 156.968V140C117.239 137.667 119.266 135.758 121.727 135.758H139.662C142.132 135.758 144.149 137.667 144.149 140V156.968C144.149 159.301 146.172 161.215 148.632 161.215H166.562C169.032 161.215 171.05 159.301 171.05 156.968V140C171.05 137.667 173.072 135.758 175.532 135.758H193.463C195.933 135.758 197.955 137.667 197.955 140V156.968C197.955 159.301 199.977 161.215 202.438 161.215H220.363C222.838 161.215 224.855 159.301 224.855 156.968V140C224.855 137.667 226.873 135.758 229.338 135.758H247.268C248.436 135.756 249.557 136.2 250.388 136.994C251.219 137.788 251.694 138.869 251.708 140ZM238.255 76.3654V127.269H229.295C221.875 127.269 215.842 132.981 215.842 140V152.731H206.877V140C206.877 136.248 205.129 132.911 202.399 130.578V76.3654H238.255Z" fill="#3EC0DD"/>
<path d="M47.7342 212.117H29.8086C28.6332 212.107 27.5013 212.548 26.6598 213.344C25.8183 214.139 25.3354 215.225 25.3164 216.364V224.843C25.3164 227.177 27.3434 229.085 29.8086 229.085H47.7342C48.9083 229.097 50.0391 228.657 50.8792 227.862C51.7193 227.067 52.2003 225.981 52.2168 224.843V216.364C52.2168 214.031 50.2042 212.117 47.7342 212.117ZM77.716 233.332H59.7857C58.6115 233.322 57.4809 233.762 56.6403 234.557C55.7997 235.352 55.3173 236.436 55.2983 237.574V246.058C55.2983 248.391 57.3205 250.295 59.7857 250.295H77.716C78.8898 250.307 80.0204 249.867 80.8611 249.074C81.7019 248.28 82.1844 247.196 82.2034 246.058V237.574C82.2034 235.241 80.1812 233.332 77.716 233.332ZM87.1579 199.396H69.2227C68.0494 199.385 66.9193 199.824 66.0793 200.618C65.2394 201.412 64.7579 202.496 64.7401 203.633V212.117C64.7401 214.451 66.7527 216.364 69.2227 216.364H87.1579C89.6183 216.364 91.6453 214.451 91.6453 212.117V203.633C91.6453 201.305 89.6183 199.396 87.1579 199.396ZM74.6346 186.371C77.0997 186.371 79.122 184.458 79.122 182.125V173.645C79.122 171.312 77.0997 169.403 74.6346 169.403H56.6994C55.5252 169.393 54.3946 169.834 53.554 170.628C52.7134 171.423 52.231 172.508 52.212 173.645V182.125C52.212 184.458 54.239 186.371 56.6994 186.371H74.6346ZM209.122 241.816V250.295C209.122 252.629 211.144 254.542 213.605 254.542H231.535C234.005 254.542 236.022 252.629 236.022 250.295V241.816C236.022 239.483 234.005 237.574 231.535 237.574H213.605C212.431 237.565 211.302 238.006 210.462 238.801C209.623 239.595 209.141 240.679 209.122 241.816ZM215.839 202.341V193.857C215.821 192.719 215.34 191.635 214.5 190.84C213.66 190.045 212.53 189.605 211.356 189.615H193.421C192.248 189.606 191.118 190.047 190.279 190.841C189.439 191.636 188.957 192.72 188.938 193.857V202.341C188.938 204.674 190.96 206.583 193.421 206.583H211.356C212.53 206.594 213.661 206.154 214.501 205.359C215.341 204.564 215.822 203.479 215.839 202.341ZM193.426 218.483H175.495C174.322 218.474 173.193 218.915 172.353 219.709C171.513 220.504 171.032 221.588 171.013 222.725V231.209C171.013 233.542 173.035 235.446 175.495 235.446H193.426C194.6 235.459 195.732 235.02 196.574 234.226C197.416 233.432 197.899 232.347 197.918 231.209V222.725C197.898 221.586 197.414 220.502 196.573 219.707C195.731 218.913 194.6 218.473 193.426 218.483ZM177.739 183.189V174.705C177.739 172.371 175.722 170.458 173.252 170.458H155.321C154.147 170.449 153.017 170.891 152.177 171.686C151.338 172.482 150.856 173.567 150.839 174.705V183.189C150.839 185.517 152.861 187.426 155.321 187.426H173.256C174.429 187.436 175.559 186.996 176.398 186.203C177.238 185.409 177.72 184.326 177.739 183.189Z" fill="#3EC0DD"/>
</svg>
