<svg width="54" height="61" viewBox="0 0 54 61" fill="none" xmlns="http://www.w3.org/2000/svg">
<path d="M21.79 40.9792V59.7292C21.79 59.7292 22.3585 60.6667 22.7374 60.6667C23.1164 60.6667 23.6848 59.7292 23.6848 59.7292V40.9792H21.79ZM26.5269 40.9792H25.5795V59.7292C25.5795 59.7292 26.1479 60.6667 26.5269 60.6667C26.9058 60.6667 27.4743 59.7292 27.4743 59.7292V40.9792H26.5269ZM29.369 40.9792V59.7292C29.369 59.7292 29.9374 60.6667 30.3164 60.6667C30.6953 60.6667 31.2638 59.7292 31.2638 59.7292V40.9792H29.369Z" fill="#242B35"/>
<path d="M18.474 48.4792H34.5793V50.3542H18.474V48.4792ZM18.474 44.7292H34.5793V46.6042H18.474V44.7292ZM18.474 52.2292H34.5793V54.1042H18.474V52.2292ZM18.474 55.9792H34.5793V57.8542H18.474V55.9792ZM8.52658 10.9792C8.52658 11.5417 8.14763 11.9167 7.57921 11.9167C7.01078 11.9167 6.63184 11.5417 6.63184 10.9792V1.60425C6.63184 1.04175 7.01078 0.666748 7.57921 0.666748C8.14763 0.666748 8.52658 1.04175 8.52658 1.60425V10.9792ZM27.474 10.9792C27.474 11.5417 27.0003 11.9167 26.5266 11.9167C26.0529 11.9167 25.5793 11.5417 25.5793 10.9792V1.60425C25.5793 1.04175 26.0529 0.666748 26.5266 0.666748C27.0003 0.666748 27.474 1.04175 27.474 1.60425V10.9792ZM46.4214 10.9792C46.4214 11.5417 45.9477 11.9167 45.474 11.9167C45.0004 11.9167 44.5267 11.5417 44.5267 10.9792V1.60425C44.5267 1.04175 45.0004 0.666748 45.474 0.666748C45.9477 0.666748 46.4214 1.04175 46.4214 1.60425V10.9792Z" fill="#242B35"/>
<path d="M17.5261 21.2917H34.5788V36.2917H17.5261V21.2917ZM2.36816 17.5417H11.8419V36.2917H2.36816V17.5417ZM40.263 17.5417H49.7367V36.2917H40.263V17.5417Z" fill="#9FA8AF"/>
<path d="M26.5264 10.0417L15.1579 21.2917H37.8948L26.5264 10.0417ZM7.57897 10.0417L0 17.5417H15.1579L7.57897 10.0417ZM45.4738 10.0417L37.8948 17.5417H53.0528L45.4738 10.0417Z" fill="#11A1C4"/>
<path d="M26.5257 30.6667C28.0954 30.6667 29.3678 29.4075 29.3678 27.8542C29.3678 26.3009 28.0954 25.0417 26.5257 25.0417C24.9561 25.0417 23.6836 26.3009 23.6836 27.8542C23.6836 29.4075 24.9561 30.6667 26.5257 30.6667Z" fill="#242B35"/>
<path d="M23.6836 27.8542H29.3678V36.2917H23.6836V27.8542Z" fill="#242B35"/>
<path d="M51.1589 30.6667H47.3694C46.8957 30.6667 46.4221 31.1355 46.4221 31.6042V35.3542C46.4221 35.823 45.9484 36.2917 45.4747 36.2917H41.6852C41.2115 36.2917 40.7378 35.823 40.7378 35.3542V31.6042C40.7378 31.1355 40.2641 30.6667 39.7905 30.6667H36.001C35.5273 30.6667 35.0536 31.1355 35.0536 31.6042V35.3542C35.0536 35.823 34.5799 36.2917 34.1062 36.2917H30.3167C29.8431 36.2917 29.3694 35.823 29.3694 35.3542V31.6042C29.3694 31.1355 28.8957 30.6667 28.422 30.6667H24.6325C24.1588 30.6667 23.6852 31.1355 23.6852 31.6042V35.3542C23.6852 35.823 23.2115 36.2917 22.7378 36.2917H18.9483C18.4746 36.2917 18.0009 35.823 18.0009 35.3542V31.6042C18.0009 31.1355 17.5272 30.6667 17.0536 30.6667H13.2641C12.7904 30.6667 12.3167 31.1355 12.3167 31.6042V35.3542C12.3167 35.823 11.843 36.2917 11.3693 36.2917H7.57984C7.01142 36.2917 6.63247 35.823 6.63247 35.3542V31.6042C6.63247 31.1355 6.25352 30.6667 5.6851 30.6667H1.89561C1.32719 30.6667 0.948242 31.1355 0.948242 31.6042V35.3542C0.948242 35.823 1.23245 36.573 1.6114 36.948L2.17982 37.5105C2.55877 37.8855 2.84298 38.6355 2.84298 39.1042V59.7292C2.84298 60.198 3.22193 60.6667 3.79036 60.6667H18.9483V49.4167C18.9483 45.2917 22.3588 41.9167 26.5273 41.9167C30.6957 41.9167 34.1062 45.2917 34.1062 49.4167V60.6667H49.2642C49.7379 60.6667 50.2115 60.198 50.2115 59.7292V39.1042C50.2115 38.6355 50.4958 37.8855 50.8747 37.5105L51.4431 36.948C51.8221 36.573 52.1063 35.823 52.1063 35.3542V31.6042C52.1063 31.1355 51.6326 30.6667 51.1589 30.6667Z" fill="#DEE7EE"/>
<path d="M5.68555 21.2917H9.47503V26.9167H5.68555V21.2917Z" fill="#242B35"/>
<path d="M7.58029 23.1667C8.62673 23.1667 9.47503 22.3273 9.47503 21.2917C9.47503 20.2562 8.62673 19.4167 7.58029 19.4167C6.53385 19.4167 5.68555 20.2562 5.68555 21.2917C5.68555 22.3273 6.53385 23.1667 7.58029 23.1667Z" fill="#242B35"/>
<path d="M43.5801 21.2917H47.3696V26.9167H43.5801V21.2917Z" fill="#242B35"/>
<path d="M45.4748 23.1667C46.5213 23.1667 47.3696 22.3273 47.3696 21.2917C47.3696 20.2562 46.5213 19.4167 45.4748 19.4167C44.4284 19.4167 43.5801 20.2562 43.5801 21.2917C43.5801 22.3273 44.4284 23.1667 45.4748 23.1667Z" fill="#242B35"/>
<path d="M6.15775 41.9167H2.36827C1.79985 41.9167 1.4209 42.3855 1.4209 42.8542V44.7292C1.4209 45.198 1.79985 45.6667 2.36827 45.6667H6.15775C6.72618 45.6667 7.10512 45.198 7.10512 44.7292V42.8542C7.10512 42.3855 6.72618 41.9167 6.15775 41.9167Z" fill="#B2C1C0"/>
<path d="M16.1053 6.85395C13.5474 5.4477 11.0843 8.2602 8.52637 6.85395V2.0727C11.0843 3.47895 13.5474 0.666448 16.1053 2.0727C15.4422 2.54145 14.8738 3.1977 14.2106 4.04145C14.8738 4.79145 15.4422 5.6352 16.1053 6.85395ZM35.0528 6.85395C32.4949 5.4477 30.0317 8.2602 27.4738 6.85395V2.0727C30.0317 3.47895 32.4949 0.666448 35.0528 2.0727C34.3896 2.54145 33.8212 3.1977 33.158 4.04145C33.8212 4.79145 34.3896 5.6352 35.0528 6.85395ZM54.0002 6.85395C51.4423 5.4477 48.9791 8.2602 46.4212 6.85395V2.0727C48.9791 3.47895 51.4423 0.666448 54.0002 2.0727C53.337 2.54145 52.7686 3.1977 52.1054 4.04145C52.7686 4.79145 53.337 5.6352 54.0002 6.85395Z" fill="#3EC0DD"/>
<path d="M8.99987 47.5417H5.21038C4.64196 47.5417 4.26301 48.0105 4.26301 48.4792V50.3542C4.26301 50.823 4.64196 51.2917 5.21038 51.2917H8.99987C9.56829 51.2917 9.94724 50.823 9.94724 50.3542V48.4792C9.94724 48.0105 9.56829 47.5417 8.99987 47.5417ZM17.3367 56.9167H13.5472C13.0736 56.9167 12.5999 57.3855 12.5999 57.8542V59.7292C12.5999 60.198 13.0736 60.6667 13.5472 60.6667H17.3367C17.8104 60.6667 18.2841 60.198 18.2841 59.7292V57.8542C18.2841 57.3855 17.8104 56.9167 17.3367 56.9167ZM15.3473 52.2292H11.5578C10.9893 52.2292 10.6104 52.698 10.6104 53.1667V55.0417C10.6104 55.5105 10.9893 55.9792 11.5578 55.9792H15.3473C15.8209 55.9792 16.2946 55.5105 16.2946 55.0417V53.1667C16.2946 52.698 15.8209 52.2292 15.3473 52.2292ZM17.3367 44.7292H13.5472C13.0736 44.7292 12.5999 45.198 12.5999 45.6667V47.5417C12.5999 48.0105 13.0736 48.4792 13.5472 48.4792H17.3367C17.8104 48.4792 18.2841 48.0105 18.2841 47.5417V45.6667C18.2841 45.198 17.8104 44.7292 17.3367 44.7292ZM14.6841 38.073H10.8946C10.3262 38.073 9.94724 38.5417 9.94724 39.0105V40.8855C9.94724 41.3542 10.3262 41.823 10.8946 41.823H14.6841C15.1578 41.823 15.6315 41.3542 15.6315 40.8855V39.0105C15.6315 38.5417 15.1578 38.073 14.6841 38.073ZM6.15775 53.1667H2.36827C1.79985 53.1667 1.4209 53.6355 1.4209 54.1042V55.9792C1.4209 56.448 1.79985 56.9167 2.36827 56.9167H6.15775C6.72618 56.9167 7.10513 56.448 7.10513 55.9792V54.1042C7.10513 53.6355 6.72618 53.1667 6.15775 53.1667ZM50.6842 47.5417H46.8947C46.421 47.5417 45.9473 48.0105 45.9473 48.4792V50.3542C45.9473 50.823 46.421 51.2917 46.8947 51.2917H50.6842C51.1579 51.2917 51.6316 50.823 51.6316 50.3542V48.4792C51.6316 48.0105 51.1579 47.5417 50.6842 47.5417ZM47.8421 53.1667H44.0526C43.5789 53.1667 43.1052 53.6355 43.1052 54.1042V55.9792C43.1052 56.448 43.5789 56.9167 44.0526 56.9167H47.8421C48.3158 56.9167 48.7895 56.448 48.7895 55.9792V54.1042C48.7895 53.6355 48.3158 53.1667 47.8421 53.1667ZM43.5789 42.573H39.7894C39.3157 42.573 38.8421 43.0417 38.8421 43.5105V45.3855C38.8421 45.8542 39.3157 46.323 39.7894 46.323H43.5789C44.0526 46.323 44.5263 45.8542 44.5263 45.3855V43.5105C44.5263 42.948 44.0526 42.573 43.5789 42.573ZM39.7894 48.948H35.9999C35.5263 48.948 35.0526 49.4167 35.0526 49.8855V51.7605C35.0526 52.2292 35.5263 52.698 35.9999 52.698H39.7894C40.2631 52.698 40.7368 52.2292 40.7368 51.7605V49.8855C40.7368 49.4167 40.2631 48.948 39.7894 48.948ZM41.5894 56.9167H37.8C37.3263 56.9167 36.8526 57.3855 36.8526 57.8542V59.7292C36.8526 60.198 37.3263 60.6667 37.8 60.6667H41.5894C42.0631 60.6667 42.5368 60.198 42.5368 59.7292V57.8542C42.5368 57.3855 42.0631 56.9167 41.5894 56.9167ZM50.2105 37.4167H46.421C45.9473 37.4167 45.4737 37.8855 45.4737 38.3542V40.2292C45.4737 40.698 45.9473 41.1667 46.421 41.1667H50.2105C50.6842 41.1667 51.1579 40.698 51.1579 40.2292V38.3542C51.1579 37.7917 50.6842 37.4167 50.2105 37.4167ZM35.5263 38.3542H31.7368C31.2631 38.3542 30.7894 38.823 30.7894 39.2917V41.1667C30.7894 41.6355 31.2631 42.1042 31.7368 42.1042H35.5263C35.9999 42.1042 36.4736 41.6355 36.4736 41.1667V39.2917C36.4736 38.7292 35.9999 38.3542 35.5263 38.3542Z" fill="#9FA8AF"/>
<path d="M9.47416 26.823H5.68468C5.11625 26.823 4.7373 27.2917 4.7373 27.7605V27.948C4.7373 28.4167 5.11625 28.8855 5.68468 28.8855H9.47416C10.0426 28.8855 10.4215 28.4167 10.4215 27.948V27.7605C10.4215 27.198 10.0426 26.823 9.47416 26.823ZM47.369 26.823H43.5795C43.1058 26.823 42.6321 27.2917 42.6321 27.7605V27.948C42.6321 28.4167 43.1058 28.8855 43.5795 28.8855H47.369C47.8427 28.8855 48.3164 28.4167 48.3164 27.948V27.7605C48.3164 27.198 47.8427 26.823 47.369 26.823Z" fill="#DEE7EE"/>
</svg>
