<svg width="60" height="61" viewBox="0 0 60 61" fill="none" xmlns="http://www.w3.org/2000/svg">
<path d="M30 60.3325C46.5685 60.3325 60 46.9011 60 30.3325C60 13.764 46.5685 0.33252 30 0.33252C13.4315 0.33252 0 13.764 0 30.3325C0 46.9011 13.4315 60.3325 30 60.3325Z" fill="url(#paint0_linear_225_670)"/>
<path d="M24.5 44.082C23.5281 44.082 23.6932 43.7151 23.358 42.7897L20.5 33.3835L42.5 20.332" fill="#C8DAEA"/>
<path d="M24.5 44.0818C25.25 44.0818 25.5814 43.7388 26 43.3318L30 39.4423L25.0105 36.4336" fill="#A9C9DD"/>
<path d="M25.0108 36.4339L37.1008 45.3662C38.4804 46.1274 39.4761 45.7333 39.8198 44.0853L44.741 20.8945C45.2449 18.8745 43.971 17.9583 42.6512 18.5575L13.7537 29.7002C11.7812 30.4914 11.7927 31.5919 13.3941 32.0822L20.8099 34.3968L37.9781 23.5656C38.7886 23.0741 39.5325 23.3383 38.9219 23.8802" fill="url(#paint1_linear_225_670)"/>
<defs>
<linearGradient id="paint0_linear_225_670" x1="22.503" y1="2.83452" x2="7.503" y2="37.8325" gradientUnits="userSpaceOnUse">
<stop stop-color="#37AEE2"/>
<stop offset="1" stop-color="#1E96C8"/>
</linearGradient>
<linearGradient id="paint1_linear_225_670" x1="26.2453" y1="32.1742" x2="29.4507" y2="42.5429" gradientUnits="userSpaceOnUse">
<stop stop-color="#EFF7FC"/>
<stop offset="1" stop-color="white"/>
</linearGradient>
</defs>
</svg>
