<svg width="61" height="51" viewBox="0 0 61 51" fill="none" xmlns="http://www.w3.org/2000/svg">
<path d="M54.5245 13.1136C54.5611 13.6564 54.5611 14.1987 54.5611 14.7462C54.5611 31.4276 42.1781 50.6665 19.5361 50.6665V50.6569C12.847 50.6665 6.29664 48.7016 0.666992 44.9968C1.63965 45.1169 2.61699 45.177 3.59668 45.1794C9.14064 45.184 14.5251 43.277 18.885 39.7649C16.3162 39.7152 13.8268 38.8434 11.7648 37.2715C9.70289 35.6996 8.17145 33.5061 7.38465 30.9978C9.23012 31.3632 11.1314 31.2877 12.9426 30.7801C7.19949 29.5902 3.06793 24.4156 3.06793 18.406V18.2459C4.77995 19.2241 6.69608 19.766 8.65496 19.8261C3.24512 16.1187 1.57871 8.73898 4.84496 2.96971C7.93538 6.86973 11.7912 10.0594 16.1619 12.3316C20.5326 14.6038 25.3206 15.9077 30.2146 16.1586C29.7268 14.0043 29.799 11.7565 30.424 9.63979C31.0491 7.52311 32.205 5.61182 33.7762 4.09703C38.7342 -0.682888 46.5318 -0.437714 51.1921 4.64458C53.949 4.08633 56.5927 3.04974 59.0095 1.57944C58.0905 4.50262 56.1675 6.984 53.5982 8.56207C56.0384 8.26701 58.4214 7.59689 60.667 6.57424C59.015 9.11136 56.9349 11.3259 54.5245 13.1136Z" fill="#1D9BF0"/>
</svg>
