<svg width="61" height="61" viewBox="0 0 61 61" fill="none" xmlns="http://www.w3.org/2000/svg">
<rect x="7.83398" y="7.83203" width="45" height="45" fill="white"/>
<path d="M39.553 0.33252H21.145C4.33298 0.33252 0.333984 4.33152 0.333984 21.1135V39.5215C0.333984 56.3305 4.30298 60.3325 21.115 60.3325H39.523C56.332 60.3325 60.334 56.3635 60.334 39.5515V21.1435C60.334 4.33152 56.365 0.33252 39.553 0.33252ZM48.772 43.1425H44.395C42.739 43.1425 42.241 41.8015 39.271 38.8315C36.679 36.3325 35.584 36.0205 34.927 36.0205C34.021 36.0205 33.772 36.2695 33.772 37.5205V41.4565C33.772 42.5215 33.427 43.1455 30.646 43.1455C27.947 42.9641 25.3298 42.1442 23.0098 40.7531C20.6898 39.3621 18.7335 37.4398 17.302 35.1445C13.9035 30.9145 11.5388 25.9499 10.396 20.6455C10.396 19.9885 10.645 19.3945 11.896 19.3945H16.27C17.395 19.3945 17.8 19.8955 18.241 21.0505C20.365 27.3025 23.989 32.7385 25.459 32.7385C26.023 32.7385 26.269 32.4895 26.269 31.0825V24.6445C26.083 21.7075 24.523 21.4585 24.523 20.3965C24.543 20.1164 24.6714 19.8551 24.8808 19.6681C25.0903 19.481 25.3644 19.3829 25.645 19.3945H32.521C33.46 19.3945 33.772 19.8625 33.772 20.9875V29.6755C33.772 30.6145 34.177 30.9265 34.459 30.9265C35.023 30.9265 35.458 30.6145 36.49 29.5825C38.7066 26.8794 40.5176 23.8678 41.866 20.6425C42.0038 20.2551 42.2646 19.9234 42.6086 19.6981C42.9525 19.4728 43.3608 19.3661 43.771 19.3945H48.148C49.459 19.3945 49.738 20.0515 49.459 20.9875C47.8675 24.5528 45.8982 27.9372 43.585 31.0825C43.114 31.8025 42.925 32.1775 43.585 33.0205C44.02 33.6775 45.553 34.9585 46.585 36.1765C48.0847 37.6724 49.3301 39.4032 50.272 41.3005C50.647 42.5185 50.02 43.1425 48.772 43.1425Z" fill="#0078FF"/>
</svg>
