<?xml version="1.0" standalone="no"?>
<!DOCTYPE svg PUBLIC "-//W3C//DTD SVG 20010904//EN"
 "http://www.w3.org/TR/2001/REC-SVG-20010904/DTD/svg10.dtd">
<svg version="1.0" xmlns="http://www.w3.org/2000/svg"
 width="976.000000pt" height="976.000000pt" viewBox="0 0 976.000000 976.000000"
 preserveAspectRatio="xMidYMid meet">
<metadata>
Created by potrace 1.14, written by Peter Selinger 2001-2017
</metadata>
<g transform="translate(0.000000,976.000000) scale(0.100000,-0.100000)"
fill="#000000" stroke="none">
<path d="M1400 9650 c-7 -5 -18 -6 -25 -4 -17 7 -77 -37 -97 -71 -16 -29 -18
-82 -18 -783 -1 -413 1 -756 4 -761 7 -10 -51 -70 -154 -161 -35 -30 -78 -69
-95 -85 -18 -17 -46 -41 -62 -55 -34 -28 -165 -144 -197 -175 -12 -11 -60 -54
-106 -95 -47 -41 -101 -89 -120 -107 -19 -17 -45 -40 -58 -51 -12 -11 -54 -48
-92 -82 -38 -34 -78 -70 -88 -79 -133 -116 -202 -179 -202 -184 0 -2 92 -3
205 -3 l205 1 0 -60 c0 -112 0 -1990 0 -2015 0 -24 -3 -25 -64 -27 -91 -2
-153 -38 -177 -102 -5 -13 -9 -176 -9 -362 1 -322 2 -341 22 -391 32 -79 67
-126 155 -204 83 -76 127 -141 147 -223 8 -29 12 -130 12 -281 l-1 -235 -58
-1 c-32 -1 -69 -5 -82 -8 -39 -10 -94 -64 -105 -104 -5 -21 -9 -112 -8 -205 1
-155 3 -170 25 -206 30 -51 80 -74 163 -75 l66 -1 -1 -600 0 -600 -55 -1 c-30
-1 -58 -3 -62 -4 -5 -1 -11 -3 -15 -5 -47 -13 -89 -47 -111 -90 -5 -11 -10
-99 -10 -202 0 -173 1 -183 24 -221 31 -51 81 -75 164 -77 l65 -2 0 -239 c1
-270 4 -282 69 -330 l41 -29 1020 -2 c561 -1 1022 -2 1025 -3 3 -2 10 -1 15 0
23 4 216 2 221 -3 3 -3 12 -3 20 0 7 2 109 6 226 8 117 1 216 3 220 4 3 0 7
98 7 217 0 119 3 219 6 222 3 3 116 6 250 6 211 1 245 -1 246 -14 0 -8 2 -76
2 -151 l2 -136 37 -48 c40 -51 105 -102 126 -99 6 1 18 2 26 3 18 1 77 55 116
105 l30 39 0 151 0 151 152 -1 c84 -1 161 -2 170 -3 15 -1 17 -14 17 -93 -1
-212 -1 -210 31 -247 17 -18 30 -36 30 -40 1 -11 81 -66 98 -66 41 -1 98 43
152 116 26 36 26 39 25 183 -2 141 -1 146 19 147 91 5 309 3 312 -3 3 -4 5
-72 5 -151 0 -137 1 -145 24 -177 47 -63 116 -119 143 -114 6 1 18 2 25 3 13
1 69 52 117 105 24 27 25 33 26 177 1 83 5 153 8 156 8 8 496 10 497 3 1 -3 2
-104 2 -225 l2 -220 335 -2 c184 0 337 -2 340 -3 3 -1 9 -2 14 -1 12 3 368 3
381 0 6 -1 15 0 20 1 12 2 206 2 220 -1 6 -1 15 0 20 1 6 2 323 3 705 4 661 1
697 2 733 20 34 17 82 66 82 84 0 4 3 12 6 17 4 6 6 315 5 688 -1 401 3 681 8
685 5 3 36 6 68 7 44 2 68 9 98 29 73 48 78 65 79 261 1 96 -3 184 -8 197 -11
29 -38 58 -76 84 -30 20 -46 24 -120 27 -22 1 -42 4 -45 8 -4 6 -5 936 -1 999
1 9 11 17 23 17 48 4 119 59 134 104 4 13 8 98 9 189 2 173 -5 213 -45 255
-19 20 -19 21 60 93 84 77 132 156 146 238 4 21 7 181 7 355 0 360 1 357 -82
413 -43 28 -46 29 -190 30 l-146 1 -1 1050 -1 1050 289 0 c158 -1 287 2 286 6
-2 4 -32 33 -68 65 -36 31 -99 87 -140 125 -41 37 -84 76 -96 86 -12 10 -54
47 -94 83 -40 36 -82 73 -94 83 -12 10 -50 45 -86 77 -36 32 -74 67 -86 77
-28 24 -152 135 -185 164 -14 13 -58 53 -99 89 -41 36 -85 76 -99 89 -14 13
-47 41 -72 63 l-47 40 0 329 c0 181 3 329 6 329 4 0 20 -7 35 -15 27 -14 159
-43 202 -44 60 -2 190 4 190 9 0 1 11 3 25 5 14 2 39 7 55 11 17 3 39 8 50 9
11 2 20 4 20 5 0 1 11 4 25 7 39 7 55 11 55 13 0 1 7 3 15 5 48 10 71 16 125
29 98 23 154 30 260 29 109 0 145 -5 219 -34 28 -10 52 -17 54 -14 2 2 -18 37
-44 77 -27 40 -51 78 -54 83 -5 11 -60 86 -70 95 -3 3 -17 21 -32 42 -29 38
-33 43 -87 101 -32 34 -33 37 -18 60 22 34 184 197 231 232 21 17 46 37 54 45
9 8 17 13 18 10 1 -3 5 -2 8 1 8 7 -75 44 -119 53 -16 4 -41 9 -55 12 -33 7
-229 6 -241 -2 -5 -3 -25 -8 -44 -10 -19 -2 -63 -11 -97 -19 -35 -9 -74 -18
-88 -21 -14 -3 -43 -10 -65 -16 -22 -5 -49 -12 -60 -14 -11 -2 -31 -6 -45 -10
-14 -3 -36 -7 -50 -9 -14 -3 -45 -8 -70 -13 -73 -13 -262 -5 -292 14 -4 3 -18
7 -30 9 -12 3 -37 12 -55 20 -31 15 -32 18 -32 69 1 29 -5 64 -11 77 -64 118
-246 122 -307 6 -14 -27 -17 -65 -18 -234 0 -133 3 -203 10 -203 7 0 7 -3 0
-8 -14 -9 -14 -225 0 -234 6 -5 6 -8 0 -8 -12 0 -14 -808 -2 -827 4 -6 3 -14
-3 -18 -6 -4 -8 -10 -5 -15 6 -10 -13 -30 -109 -115 -38 -33 -78 -69 -90 -80
-13 -11 -55 -49 -96 -85 -40 -36 -78 -70 -84 -75 -10 -9 -57 -51 -280 -250
-44 -38 -84 -75 -90 -80 -6 -6 -47 -42 -90 -80 -44 -39 -91 -81 -105 -94 -14
-13 -52 -46 -85 -75 -80 -70 -136 -123 -136 -128 0 -3 92 -4 205 -4 160 1 204
-2 200 -11 -2 -7 0 -13 6 -13 6 0 7 -5 3 -12 -10 -16 -11 -78 -2 -105 4 -13 4
-23 0 -23 -11 0 -8 -214 3 -222 7 -5 7 -11 0 -15 -13 -10 -13 -256 0 -265 7
-5 7 -8 0 -8 -11 0 -12 -261 -1 -279 4 -6 4 -11 -1 -11 -12 0 -10 -214 2 -222
7 -5 7 -8 0 -8 -11 0 -12 -141 -1 -159 4 -6 4 -11 -1 -11 -12 0 -10 -254 2
-262 7 -5 6 -8 0 -8 -12 0 -12 -100 -1 -119 4 -6 4 -11 -1 -11 -4 0 -8 -49 -8
-110 0 -60 4 -110 8 -110 4 0 4 -8 -1 -17 -5 -10 -7 -42 -6 -71 2 -39 0 -51
-9 -45 -22 14 -40 14 -412 15 -401 2 -398 2 -458 -54 -43 -42 -46 -66 -46
-398 1 -197 -3 -325 -10 -342 -10 -28 -53 -71 -67 -69 -5 1 -10 2175 -5 2341
l1 25 282 -1 c156 -1 286 1 290 3 4 2 -9 18 -29 36 -21 18 -44 39 -53 47 -9 8
-46 42 -84 75 -37 33 -78 69 -90 80 -76 69 -131 117 -191 170 -38 33 -73 65
-79 70 -7 6 -34 30 -61 55 -28 25 -86 77 -130 115 -43 39 -86 77 -95 85 -9 8
-49 44 -90 80 -41 36 -81 72 -90 80 -22 20 -167 150 -194 173 -38 33 -160 142
-187 167 -15 14 -55 50 -90 80 -34 30 -70 62 -79 70 -9 8 -45 40 -79 70 -35
30 -78 69 -96 85 -18 17 -53 48 -77 70 l-44 40 1 322 c0 177 3 324 7 328 3 4
20 0 36 -9 54 -28 167 -48 257 -46 78 2 210 20 230 31 6 4 18 5 28 4 9 -2 17
0 17 5 0 4 11 6 25 5 14 -2 25 1 25 6 0 5 10 9 23 9 12 0 56 10 97 21 41 11
91 22 110 25 19 3 42 7 50 10 8 4 62 7 120 9 100 3 190 -9 253 -34 15 -6 27
-7 27 -3 0 4 4 1 9 -7 5 -7 13 -12 19 -10 22 8 -253 388 -305 422 -7 4 -13 12
-13 17 0 22 191 216 272 276 l57 42 -35 17 c-19 9 -42 18 -52 20 -9 2 -39 9
-67 15 -54 13 -199 16 -255 5 -97 -18 -190 -38 -233 -50 -27 -8 -52 -14 -55
-14 -4 1 -10 0 -14 -1 -5 -1 -12 -4 -18 -5 -5 -1 -11 -3 -12 -5 -6 -4 -80 -18
-178 -34 -88 -14 -280 -12 -280 3 0 3 -12 7 -28 8 -15 1 -47 11 -72 22 -44 20
-45 21 -48 73 -3 78 -3 76 -36 112 -84 89 -230 72 -285 -33 -10 -18 -13 -199
-13 -791 l0 -768 -92 -80 c-50 -44 -105 -93 -122 -109 -17 -15 -64 -57 -104
-93 -41 -36 -83 -74 -96 -85 -12 -11 -48 -42 -79 -70 -31 -27 -71 -63 -89 -80
-18 -16 -60 -53 -92 -82 -33 -29 -75 -66 -94 -83 -19 -18 -59 -53 -88 -78 -30
-26 -76 -68 -104 -94 -27 -27 -52 -48 -54 -48 -3 0 -15 -10 -28 -22 -12 -13
-55 -52 -96 -88 -40 -36 -78 -70 -84 -75 -9 -8 -135 -120 -192 -170 -23 -21
-158 -141 -181 -162 -13 -12 -56 -50 -95 -85 -39 -35 -88 -78 -107 -95 -20
-18 -39 -33 -43 -33 -5 0 -8 -4 -8 -8 0 -4 89 -7 198 -7 108 0 202 -1 207 -2
7 -2 10 -79 10 -213 0 -136 3 -210 10 -210 7 0 7 -3 0 -8 -14 -9 -14 -225 0
-234 6 -5 7 -8 0 -8 -6 0 -10 -44 -10 -115 0 -63 3 -115 8 -115 4 0 5 -6 0
-12 -4 -7 -8 -143 -9 -303 -1 -159 -2 -293 -3 -296 0 -4 -16 -2 -34 5 -22 7
-149 11 -392 10 -344 -1 -362 -2 -400 -21 -22 -12 -51 -34 -65 -50 l-25 -28
-3 -335 c-1 -204 -7 -345 -13 -361 -10 -24 -67 -89 -70 -78 -1 2 -2 672 -3
1489 l-1 1485 288 -1 c158 0 287 2 287 6 0 4 -26 29 -57 57 -32 28 -67 59 -78
70 -11 10 -41 36 -66 58 -72 64 -199 177 -234 210 -18 17 -54 48 -80 70 -25
22 -61 54 -79 70 -18 17 -63 57 -100 90 -38 33 -78 69 -91 80 -12 11 -57 52
-101 90 -43 39 -85 77 -94 85 -9 8 -34 30 -55 49 -22 19 -60 52 -85 75 l-44
41 -1 327 c0 181 1 328 2 328 2 0 28 -9 98 -36 31 -11 106 -21 185 -25 38 -1
160 10 170 16 3 2 24 6 46 9 60 9 84 14 118 25 17 6 94 25 171 42 219 49 411
45 517 -12 39 -20 36 -5 -18 79 -81 126 -152 219 -236 310 -37 40 -38 43 -23
65 31 45 192 202 250 245 33 24 61 45 63 47 4 3 -65 36 -86 40 -9 1 -37 8 -61
15 -55 15 -207 15 -286 1 -68 -12 -68 -13 -185 -41 -47 -12 -95 -22 -107 -23
-13 0 -23 -5 -23 -9 0 -4 -3 -7 -7 -6 -5 1 -26 -2 -48 -7 -119 -23 -164 -29
-250 -29 -96 1 -176 12 -220 33 -30 14 -59 24 -65 23 -3 0 -5 23 -4 51 2 93
-38 155 -111 172 -40 10 -74 12 -85 5z m3228 -6833 l1 -213 -124 1 c-78 0
-125 -4 -125 -10 0 -6 -3 -6 -8 1 -4 5 -24 10 -44 9 l-38 -1 0 177 c0 170 1
179 21 189 11 6 28 13 37 16 9 2 53 13 96 24 44 10 95 22 115 25 19 3 37 8 39
10 3 3 11 0 17 -5 9 -7 13 -70 13 -223z m398 218 c63 -9 134 -25 207 -47 l67
-21 0 -182 0 -183 -60 2 c-38 2 -60 -1 -60 -8 0 -7 -3 -8 -8 -1 -4 6 -43 10
-92 9 -47 -1 -92 0 -100 2 -13 3 -15 34 -14 221 1 120 2 219 3 221 0 2 5 1 10
-2 5 -3 26 -8 47 -11z m-1073 -322 c-2 -111 -2 -117 -10 -110 -3 4 -12 2 -20
-4 -7 -6 -13 -7 -13 -2 0 6 -35 9 -81 8 l-80 -3 23 26 c35 41 107 105 153 139
17 12 30 23 30 23 0 0 -1 -35 -2 -77z m1844 -60 c23 -23 39 -44 35 -46 -4 -2
-44 -4 -89 -3 -52 1 -83 -2 -83 -9 -1 -5 -6 0 -13 12 -7 12 -11 35 -11 52 1
17 2 54 3 82 l1 51 57 -49 c32 -26 77 -67 100 -90z m-1852 -355 c8 -5 11 -126
6 -263 l-1 -31 -245 0 -246 1 5 25 c3 14 7 36 10 50 7 46 39 144 58 185 l20
40 191 0 c106 -1 197 -4 202 -7z m676 -1 c3 -4 7 -72 7 -150 l2 -143 -107 1
c-60 1 -114 -3 -120 -8 -8 -6 -13 -6 -13 0 0 5 -21 9 -47 9 l-48 -1 -3 144
c-1 82 1 147 7 150 14 9 315 7 322 -2z m674 -142 l0 -150 -80 0 c-44 0 -86 -4
-92 -8 -7 -5 -13 -4 -13 1 0 4 -31 7 -70 6 -38 -1 -70 1 -71 4 -1 4 -2 71 -3
149 -2 136 -1 142 19 145 11 2 85 3 165 3 l145 0 0 -150z m757 137 c7 -7 9
-12 6 -12 -4 0 6 -31 22 -70 16 -38 27 -70 25 -70 -3 0 0 -11 5 -25 5 -14 12
-44 15 -68 l6 -43 -58 1 c-32 1 -64 -3 -70 -8 -7 -5 -13 -5 -13 -1 0 5 -77 9
-171 8 -146 0 -171 2 -177 15 -12 25 -6 272 6 280 20 12 391 6 404 -7z m-2101
-602 c1 -18 1 -272 0 -281 -1 -3 -40 -5 -88 -4 -52 1 -91 -3 -95 -9 -6 -8 -10
-8 -15 -1 -9 12 -223 14 -223 2 0 -4 -8 -4 -17 1 -10 4 -28 7 -40 6 -27 -2
-26 -7 -24 219 l1 82 250 0 c215 0 250 -2 251 -15z m676 -136 l2 -150 -72 1
c-40 0 -75 -4 -79 -10 -5 -7 -8 -6 -8 1 0 6 -32 10 -90 9 l-90 -2 0 148 c0 91
4 149 10 151 6 2 81 3 168 2 l157 -1 2 -149z m673 76 c3 -41 3 -109 0 -150
l-5 -76 -166 0 -165 0 1 141 c0 77 3 145 7 150 4 6 70 10 165 10 l158 -1 5
-74z m840 68 c4 -5 5 -258 1 -290 -1 -5 -11 -6 -23 -4 -13 2 -29 -1 -35 -6 -7
-6 -13 -6 -13 -2 0 13 -213 12 -222 -1 -6 -7 -10 -7 -15 0 -5 7 -46 10 -100
10 -88 -1 -93 0 -94 19 -4 113 1 270 9 275 14 8 486 8 492 -1z m-2195 -600
c14 -9 11 -286 -4 -301 -6 -6 -11 -7 -11 -1 0 5 -29 9 -65 9 -36 0 -65 -4 -65
-8 0 -5 -6 -5 -12 0 -18 11 -170 11 -185 0 -8 -6 -13 -6 -13 0 0 5 -30 8 -66
8 -36 -1 -68 3 -71 8 -7 12 -7 273 0 284 6 9 477 10 492 1z m672 -1 c8 -5 11
-51 12 -144 0 -117 -2 -138 -17 -149 -9 -7 -21 -9 -27 -6 -16 10 -135 9 -135
-1 0 -6 -5 -5 -12 0 -7 5 -43 9 -80 8 l-68 -2 0 151 0 151 158 0 c86 -1 162
-4 169 -8z m683 -143 c0 -124 -3 -153 -15 -157 -8 -4 -16 -3 -19 1 -6 10 -138
8 -153 -1 -7 -4 -14 -4 -17 1 -3 5 -32 7 -65 6 -34 -1 -62 1 -62 4 -1 4 -2 71
-3 149 -2 137 -2 142 18 145 12 2 87 3 169 3 l147 0 0 -151z m840 147 c3 -1 5
-67 4 -147 0 -113 -3 -148 -14 -154 -8 -5 -19 -6 -24 -2 -16 9 -106 9 -106 -1
0 -4 -6 -5 -12 0 -17 10 -108 11 -108 0 0 -4 -6 -5 -12 0 -18 11 -108 11 -108
0 0 -6 -5 -5 -12 0 -7 5 -31 9 -53 8 -22 -1 -44 2 -50 6 -9 6 -10 83 -6 264
l1 30 247 -2 c137 -1 250 -2 253 -2z"/>
</g>
</svg>
